<svg xmlns="http://www.w3.org/2000/svg" width="13" height="23" fill="none" viewBox="0 0 13 23">
    <path fill="#FF4F00" stroke="#FF4F00" d="M11.918 3.904h0l-7.05 6.891c-.194.189-.3.443-.3.705 0 .262.106.516.3.705l7.05-8.3zm0 0l.006-.006c.373-.377.58-.884.576-1.413-.005-.529-.222-1.032-.6-1.402C11.52.713 11.012.505 10.48.5c-.53-.004-1.043.195-1.428.558h0l-.007.006L2 7.955h0C1.04 8.894.5 10.168.5 11.5c0 1.332.54 2.606 1.5 3.544h0l7.046 6.892h0l.007.006c.385.363.898.562 1.428.558.53-.005 1.04-.213 1.419-.583.378-.37.595-.873.6-1.402.005-.529-.203-1.036-.576-1.413h0l-.006-.006-7.05-6.891 7.05-8.3z"/>
</svg>
